# xmcd
#
# Track frame offsets: 
#        150
#        19560
#        37050
#        56412
#
# Disc length: 967 seconds
#
# Revision: 0
# Processed by: cddbd v1.5.2PL0 Copyright (c) Steve Scherf et al.
# Submitted via: ExactAudioCopy v0.99pb5
#
DISCID=2903c504
DTITLE=Sarah Connor - Living To Love You
DYEAR=2004
DGENRE=R&B
TTITLE0=Living To Love You (Single Version)
TTITLE1=Living To Love You (78 BPM Mix)
TTITLE2=Living To Love You (College Radio Version)
TTITLE3=Change
EXTD=
EXTT0=
EXTT1=
EXTT2=
EXTT3=
PLAYORDER=
